HIERARCHY
ROOT hip
{
  OFFSET 0 0 0
  CHANNELS 6 Xposition Yposition Zposition Zrotation Yrotation Xrotation
  JOINT abdomen
  {
    OFFSET 0 20.6881 -0.73152
    CHANNELS 3 Zrotation Xrotation Yrotation
    JOINT chest
    {
      OFFSET 0 11.7043 -0.48768
      CHANNELS 3 Zrotation Xrotation Yrotation
      JOINT neck
      {
        OFFSET 0 22.1894 -2.19456
        CHANNELS 3 Zrotation Xrotation Yrotation
        JOINT head
        {
          OFFSET -0.24384 7.07133 1.2192
          CHANNELS 3 Zrotation Xrotation Yrotation
          JOINT leftEye
          {
            OFFSET 4.14528 8.04674 8.04672
            CHANNELS 3 Zrotation Xrotation Yrotation
            End Site
            {
              OFFSET 1 0 0
            }
          }
          JOINT rightEye
          {
            OFFSET -3.6576 8.04674 8.04672
            CHANNELS 3 Zrotation Xrotation Yrotation
            End Site
            {
              OFFSET 1 0 0
            }
          }
        }
      }
      JOINT rCollar
      {
        OFFSET -2.68224 19.2634 -4.8768
        CHANNELS 3 Zrotation Xrotation Yrotation
        JOINT rShldr
        {
          OFFSET -8.77824 -1.95073 1.46304
          CHANNELS 3 Zrotation Xrotation Yrotation
          JOINT rForeArm
          {
            OFFSET -28.1742 -1.7115 0.48768
            CHANNELS 3 Zrotation Xrotation Yrotation
            JOINT rHand
            {
              OFFSET -22.5879 0.773209 7.07136
              CHANNELS 3 Zrotation Xrotation Yrotation
              JOINT rThumb1
              {
                OFFSET -1.2192 -0.487915 3.41376
                CHANNELS 3 Zrotation Xrotation Yrotation
                JOINT rThumb2
                {
                  OFFSET -3.37035 -0.52449 3.41376
                  CHANNELS 3 Zrotation Xrotation Yrotation
                  End Site
                  {
                    OFFSET -1.78271 -1.18214 1.43049
                  }
                }
              }
              JOINT rIndex1
              {
                OFFSET -7.75947 0.938293 5.60832
                CHANNELS 3 Zrotation Xrotation Yrotation
                JOINT rIndex2
                {
                  OFFSET -2.54057 -0.884171 1.56538
                  CHANNELS 3 Zrotation Xrotation Yrotation
                  End Site
                  {
                    OFFSET -1.62519 -0.234802 1.16502
                  }
                }
              }
              JOINT rMid1
              {
                OFFSET -8.24714 1.18213 3.41376
                CHANNELS 3 Zrotation Xrotation Yrotation
                JOINT rMid2
                {
                  OFFSET -3.10165 -0.590103 1.0647
                  CHANNELS 3 Zrotation Xrotation Yrotation
                  End Site
                  {
                    OFFSET -2.48547 -0.328903 0.83742
                  }
                }
              }
              JOINT rRing1
              {
                OFFSET -8.82822 0.546677 1.51678
                CHANNELS 3 Zrotation Xrotation Yrotation
                JOINT rRing2
                {
                  OFFSET -2.60934 -0.819778 -0.0198488
                  CHANNELS 3 Zrotation Xrotation Yrotation
                  End Site
                  {
                    OFFSET -2.33842 -0.294052 0.168128
                  }
                }
              }
              JOINT rPinky1
              {
                OFFSET -8.27202 -0.0477905 -0.4584
                CHANNELS 3 Zrotation Xrotation Yrotation
                JOINT rPinky2
                {
                  OFFSET -1.82734 -0.647385 -0.700984
                  CHANNELS 3 Zrotation Xrotation Yrotation
                  End Site
                  {
                    OFFSET -1.69225 -0.51767 -0.607171
                  }
                }
              }
            }
          }
        }
      }
      JOINT lCollar
      {
        OFFSET 2.68224 19.2634 -4.8768
        CHANNELS 3 Zrotation Xrotation Yrotation
        JOINT lShldr
        {
          OFFSET 8.77824 -1.95073 1.46304
          CHANNELS 3 Zrotation Xrotation Yrotation
          JOINT lForeArm
          {
            OFFSET 28.1742 -1.7115 0.48768
            CHANNELS 3 Zrotation Xrotation Yrotation
            JOINT lHand
            {
              OFFSET 22.5879 0.773209 7.07136
              CHANNELS 3 Zrotation Xrotation Yrotation
              JOINT lThumb1
              {
                OFFSET 1.2192 -0.487915 3.41376
                CHANNELS 3 Zrotation Xrotation Yrotation
                JOINT lThumb2
                {
                  OFFSET 3.37035 -0.52449 3.41376
                  CHANNELS 3 Zrotation Xrotation Yrotation
                  End Site
                  {
                    OFFSET 1.78271 -1.18214 1.43049
                  }
                }
              }
              JOINT lIndex1
              {
                OFFSET 7.75947 0.938293 5.60832
                CHANNELS 3 Zrotation Xrotation Yrotation
                JOINT lIndex2
                {
                  OFFSET 2.54057 -0.884171 1.56538
                  CHANNELS 3 Zrotation Xrotation Yrotation
                  End Site
                  {
                    OFFSET 1.62519 -0.234802 1.16502
                  }
                }
              }
              JOINT lMid1
              {
                OFFSET 8.24714 1.18213 3.41376
                CHANNELS 3 Zrotation Xrotation Yrotation
                JOINT lMid2
                {
                  OFFSET 3.10165 -0.590103 1.0647
                  CHANNELS 3 Zrotation Xrotation Yrotation
                  End Site
                  {
                    OFFSET 2.48547 -0.328903 0.83742
                  }
                }
              }
              JOINT lRing1
              {
                OFFSET 8.82822 0.546677 1.51678
                CHANNELS 3 Zrotation Xrotation Yrotation
                JOINT lRing2
                {
                  OFFSET 2.60934 -0.819778 -0.0198488
                  CHANNELS 3 Zrotation Xrotation Yrotation
                  End Site
                  {
                    OFFSET 2.33842 -0.294052 0.168128
                  }
                }
              }
              JOINT lPinky1
              {
                OFFSET 8.27202 -0.0477905 -0.4584
                CHANNELS 3 Zrotation Xrotation Yrotation
                JOINT lPinky2
                {
                  OFFSET 1.82734 -0.647385 -0.700984
                  CHANNELS 3 Zrotation Xrotation Yrotation
                  End Site
                  {
                    OFFSET 1.69225 -0.51767 -0.607171
                  }
                }
              }
            }
          }
        }
      }
    }
  }
  JOINT rButtock
  {
    OFFSET -8.77824 4.35084 1.2192
    CHANNELS 3 Zrotation Xrotation Yrotation
    JOINT rThigh
    {
      OFFSET 0 -1.70687 -2.19456
      CHANNELS 3 Zrotation Xrotation Yrotation
      JOINT rShin
      {
        OFFSET 0 -36.8199 0.73152
        CHANNELS 3 Zrotation Xrotation Yrotation
        JOINT rFoot
        {
          OFFSET 0.73152 -45.1104 -5.12064
          CHANNELS 3 Zrotation Xrotation Yrotation
          End Site
          {
            OFFSET -1.1221 -3.69964 12.103
          }
        }
      }
    }
  }
  JOINT lButtock
  {
    OFFSET 8.77824 4.35084 1.2192
    CHANNELS 3 Zrotation Xrotation Yrotation
    JOINT lThigh
    {
      OFFSET 0 -1.70687 -2.19456
      CHANNELS 3 Zrotation Xrotation Yrotation
      JOINT lShin
      {
        OFFSET 0 -36.8199 0.73152
        CHANNELS 3 Zrotation Xrotation Yrotation
        JOINT lFoot
        {
          OFFSET -0.73152 -45.1104 -5.12064
          CHANNELS 3 Zrotation Xrotation Yrotation
          End Site
          {
            OFFSET 1.1221 -3.69964 12.103
          }
        }
      }
    }
  }
}
MOTION
Frames:	4
Frame Time:	0.00833333
42.1055 78.2498 28.9678 355.359 243.702 379.428 3.42457 -8.10582 12.3831 -1.32527 2.2974 3.40802 3.51304 12.9287 8.24576 -17.5117 -14.8345 13.0584 -0.0 0.0 0.0 -0.0 0.0 0.0 1.46851e-13 4.47391e-12 -9.89055e-13 100.619 39.5195 -22.4367 -27.2183 -43.3515 90.2359 -0.00419416 1.78081 0.250364 4.51346e-09 2.77402e-09 -4.49134e-09 7.80303e-09 4.78689e-09 -7.77922e-09 4.51346e-09 2.77403e-09 -4.49134e-09 7.73091 5.47488 0.417314 4.51346e-09 2.77402e-09 -4.49133e-09 2.90554 0.965183 0.102902 4.51347e-09 2.77402e-09 -4.49134e-09 10.2786 0.731801 0.0259123 4.51345e-09 2.77402e-09 -4.49133e-09 2.22167 -0.733487 -0.20892 1.46661e-13 4.47391e-12 -9.89307e-13 -52.9853 34.3081 -34.5178 20.3962 -13.5009 -39.7426 5.55456 -53.5648 10.977 2.54385e-09 -4.47338e-10 -7.56045e-10 4.40549e-09 -9.87363e-10 -1.18706e-09 2.54384e-09 -4.47337e-10 -7.56035e-10 -7.73091 5.47488 -0.417314 2.54385e-09 -4.47338e-10 -7.56042e-10 -2.90554 0.965183 -0.102902 2.54384e-09 -4.47338e-10 -7.56048e-10 -10.2786 0.731801 -0.0259123 2.54386e-09 -4.47336e-10 -7.56059e-10 -2.22167 -0.733487 0.20892 -2.03217e-16 0.0 -3.88251e-19 9.17509 -15.5106 -11.1117 -0.101738 33.3702 1.16385 -12.4869 -17.7961 -29.8127 2.03217e-16 0.0 3.88251e-19 5.12961 -51.2978 16.4829 0.471704 45.1279 -0.782126 1.51684 -14.6477 1.89061
42.5809 78.0146 28.7187 355.147 244.934 380.125 3.69763 -8.24836 13.6076 -1.32219 2.43692 3.75344 3.26667 13.0923 7.9034 -17.2875 -15.0432 12.4204 -0.0 0.0 0.0 -0.0 0.0 0.0 8.75427e-14 6.43426e-12 -1.00019e-12 97.7017 39.0869 -19.4019 -27.4839 -42.5613 88.648 -0.00367538 1.73079 0.243321 3.94659e-09 1.91009e-09 -3.7832e-09 6.82233e-09 3.29469e-09 -6.5519e-09 3.9466e-09 1.91009e-09 -3.78321e-09 7.73091 5.47488 0.417314 3.94659e-09 1.91009e-09 -3.7832e-09 2.90554 0.965183 0.102902 3.9466e-09 1.91009e-09 -3.78321e-09 10.2786 0.731801 0.0259123 3.94658e-09 1.91009e-09 -3.7832e-09 2.22167 -0.733487 -0.20892 8.73439e-14 6.43427e-12 -1.00043e-12 -51.351 36.9042 -33.5165 21.1377 -14.5135 -41.5189 5.93729 -54.7028 11.45 2.89521e-09 -4.17822e-10 -9.95189e-10 5.02089e-09 -9.49068e-10 -1.58432e-09 2.8952e-09 -4.17821e-10 -9.95176e-10 -7.73091 5.47488 -0.417314 2.89521e-09 -4.17823e-10 -9.95186e-10 -2.90554 0.965183 -0.102902 2.8952e-09 -4.17822e-10 -9.95192e-10 -10.2786 0.731801 -0.0259123 2.89522e-09 -4.1782e-10 -9.95205e-10 -2.22167 -0.733487 0.20892 -2.03217e-16 0.0 -3.88251e-19 8.83787 -16.1863 -12.3122 -0.137377 35.2005 1.17212 -11.838 -17.3245 -28.6906 2.03217e-16 0.0 3.88251e-19 4.613 -50.4351 17.8888 0.516084 46.6945 -0.814233 1.53396 -15.1595 1.77758
42.7817 77.8338 28.3625 355.206 245.432 380.014 3.90308 -8.30455 14.769 -1.31132 2.63104 4.0854 3.23018 13.2184 7.62269 -17.1615 -15.3229 11.8769 -0.0 0.0 0.0 -0.0 0.0 0.0 8.59396e-14 8.70209e-12 -1.01901e-12 94.7809 38.5441 -15.8661 -27.7178 -41.6769 87.0219 -0.00167382 1.31811 0.185277 3.1449e-09 1.52822e-09 -1.97777e-09 5.43732e-09 2.63643e-09 -3.42849e-09 3.1449e-09 1.52822e-09 -1.97778e-09 7.73091 5.47488 0.417314 3.1449e-09 1.52822e-09 -1.97777e-09 2.90554 0.965183 0.102902 3.14491e-09 1.52822e-09 -1.97777e-09 10.2786 0.731801 0.0259123 3.14489e-09 1.52822e-09 -1.97777e-09 2.22167 -0.733487 -0.20892 8.57651e-14 8.7021e-12 -1.01924e-12 -50.3094 39.4094 -32.0107 21.9511 -15.7105 -43.5508 6.39008 -55.947 12.0011 2.67675e-09 -3.24101e-10 -9.50221e-10 4.64465e-09 -7.63014e-10 -1.51655e-09 2.67674e-09 -3.241e-10 -9.50211e-10 -7.73091 5.47488 -0.417314 2.67675e-09 -3.24101e-10 -9.50218e-10 -2.90554 0.965183 -0.102902 2.67675e-09 -3.24101e-10 -9.50223e-10 -10.2786 0.731801 -0.0259123 2.67676e-09 -3.24099e-10 -9.50236e-10 -2.22167 -0.733487 0.20892 -2.03217e-16 0.0 -3.88251e-19 8.54143 -16.8499 -13.3375 -0.18152 37.228 1.17046 -11.1023 -16.6224 -27.5489 2.03217e-16 0.0 3.88251e-19 3.9609 -49.0265 18.3332 0.52743 46.9826 -0.792354 1.19553 -16.0375 0.73464
42.7718 77.6953 27.9566 355.568 245.533 379.243 4.07139 -8.31078 15.8884 -1.30706 2.85234 4.40826 3.33531 13.3483 7.39824 -17.1156 -15.6783 11.4209 -0.0 0.0 0.0 -0.0 0.0 0.0 1.1325e-13 1.12936e-11 -1.02787e-12 91.8981 37.8273 -11.9885 -27.9065 -40.6842 85.3651 -0.000300936 0.637079 0.0895514 2.06619e-09 1.35051e-09 6.12686e-10 3.57442e-09 2.33168e-09 1.05189e-09 2.0662e-09 1.3505e-09 6.1268e-10 7.73091 5.47488 0.417314 2.06619e-09 1.3505e-09 6.12689e-10 2.90554 0.965183 0.102902 2.0662e-09 1.3505e-09 6.12684e-10 10.2786 0.731801 0.0259123 2.06618e-09 1.3505e-09 6.1269e-10 2.22167 -0.733487 -0.20892 1.1312e-13 1.12936e-11 -1.02808e-12 -49.8358 41.8995 -29.9716 22.78 -17.005 -45.8703 6.93073 -57.3001 12.6477 2.08458e-09 -2.18986e-10 -6.84061e-10 3.61682e-09 -5.32914e-10 -1.08368e-09 2.08458e-09 -2.18985e-10 -6.84054e-10 -7.73091 5.47488 -0.417314 2.08458e-09 -2.18986e-10 -6.84057e-10 -2.90554 0.965183 -0.102902 2.08458e-09 -2.18986e-10 -6.8406e-10 -10.2786 0.731801 -0.0259123 2.08459e-09 -2.18985e-10 -6.84071e-10 -2.22167 -0.733487 0.20892 -2.03217e-16 0.0 -3.88251e-19 8.18558 -17.5306 -14.317 -0.232447 39.4866 1.16125 -10.2557 -15.7121 -26.2638 2.03217e-16 0.0 3.88251e-19 3.25112 -47.2093 18.0587 0.516021 46.3908 -0.731824 0.522612 -17.0968 -1.05371
